<svg width="25" height="24" viewBox="0 0 25 24" fill="none" xmlns="http://www.w3.org/2000/svg">
<g id="Icons">
<path id="Vector (Stroke)" fill-rule="evenodd" clip-rule="evenodd" d="M1.5 12C1.5 5.92487 6.42487 1 12.5 1C18.5751 1 23.5 5.92487 23.5 12C23.5 18.0751 18.5751 23 12.5 23C6.42487 23 1.5 18.0751 1.5 12Z" fill="#6871EE"/>
<path id="Vector (Stroke)_2" fill-rule="evenodd" clip-rule="evenodd" d="M17.4471 7.05287C17.7149 7.3207 17.8085 7.71687 17.6887 8.0762L15.5687 14.4362C15.4692 14.7348 15.2348 14.9691 14.9362 15.0687L8.57623 17.1887C8.2169 17.3084 7.82073 17.2149 7.5529 16.9471C7.28507 16.6792 7.19154 16.2831 7.31132 15.9237L9.43132 9.56375C9.53086 9.26514 9.76517 9.03083 10.0638 8.93129L16.4238 6.81129C16.7831 6.69151 17.1793 6.78504 17.4471 7.05287Z" fill="#F8D94F"/>
<path id="Vector (Stroke)_3" fill-rule="evenodd" clip-rule="evenodd" d="M17.4471 7.05293C17.7149 7.32076 17.8085 7.71693 17.6887 8.07626L15.5687 14.4363C15.4692 14.7349 15.2348 14.9692 14.9362 15.0687L8.57623 17.1887C8.2169 17.3085 7.82073 17.215 7.5529 16.9471C7.28507 16.6793 7.19154 16.2831 7.31132 15.9238L9.43132 9.56381C9.53086 9.2652 9.76517 9.03089 10.0638 8.93135L16.4238 6.81135C16.7831 6.69158 17.1793 6.7851 17.4471 7.05293ZM11.1706 10.6706L9.84115 14.6589L13.8294 13.3295L15.1589 9.34118L11.1706 10.6706Z" fill="white"/>
</g>
</svg>
